<?xml version="1.0" encoding="utf-8"?>
<svg height="48" viewBox="0 96 960 960" width="48" xmlns="http://www.w3.org/2000/svg">
  <path d="M 264 811 L 78 625 L 120 583 L 234 696 L 234 342 L 294 342 L 294 696 L 407 583 L 450 625 L 264 811 Z" transform="matrix(0, -1, 1, 0, -312.49999, 840.500005)"/>
  <path d="M 611.864 712.209 C 605.006 712.209 599.005 709.638 593.862 704.494 C 588.719 699.351 586.147 693.35 586.147 686.493 L 586.147 463.616 C 586.147 456.758 588.719 450.757 593.862 445.614 C 599.005 440.471 605.006 437.899 611.864 437.899 L 903.319 437.899 C 910.177 437.899 916.177 440.471 921.321 445.614 C 926.464 450.757 929.036 456.758 929.036 463.616 L 929.036 686.493 C 929.036 693.35 926.464 699.351 921.321 704.494 C 916.177 709.638 910.177 712.209 903.319 712.209 L 611.864 712.209 Z M 657.724 629.059 L 675.726 629.059 L 675.726 521.049 L 662.012 521.049 L 630.723 542.051 L 639.724 556.195 L 657.724 544.194 L 657.724 629.059 Z M 714.73 629.059 L 784.594 629.059 L 784.594 612.772 L 737.875 612.772 L 737.875 611.915 C 741.875 608.486 746.234 604.7 750.947 600.556 C 755.662 596.414 759.877 592.485 763.592 588.77 C 769.592 583.055 774.307 577.555 777.736 572.269 C 781.165 566.982 782.879 560.625 782.879 553.195 C 782.879 544.052 779.736 536.408 773.45 530.265 C 767.163 524.122 759.02 521.049 749.019 521.049 C 740.447 521.049 733.232 523.05 727.375 527.051 C 721.516 531.051 717.159 536.337 714.301 542.908 L 730.589 550.623 C 732.017 547.48 734.446 544.766 737.875 542.48 C 741.304 540.194 745.019 539.051 749.019 539.051 C 754.162 539.051 758.162 540.48 761.02 543.337 C 763.877 546.195 765.306 549.624 765.306 553.624 C 765.306 559.338 763.877 564.125 761.02 567.983 C 758.162 571.84 754.305 575.911 749.448 580.198 C 742.876 586.198 737.089 591.484 732.088 596.056 C 727.088 600.627 721.303 606.057 714.73 612.344 L 714.73 629.059 Z M 849.313 629.059 C 859.6 629.059 868.101 626.559 874.815 621.558 C 881.531 616.558 884.888 608.771 884.888 598.199 C 884.888 591.055 883.031 585.198 879.316 580.626 C 875.601 576.054 870.744 573.482 864.744 572.911 L 864.744 572.483 C 870.173 570.768 874.244 567.983 876.96 564.125 C 879.674 560.268 881.031 555.195 881.031 548.909 C 881.031 540.337 877.959 533.551 871.816 528.55 C 865.672 523.549 858.028 521.049 848.885 521.049 C 842.599 521.049 836.599 522.763 830.883 526.192 C 825.169 529.621 820.454 534.622 816.739 541.194 L 831.312 548.909 C 833.598 545.766 836.241 543.266 839.242 541.409 C 842.242 539.552 845.456 538.622 848.885 538.622 C 853.171 538.622 856.671 539.837 859.386 542.266 C 862.101 544.694 863.458 548.052 863.458 552.338 C 863.458 557.196 861.815 560.481 858.529 562.196 C 855.243 563.91 850.885 564.768 845.456 564.768 L 839.455 564.768 L 839.455 581.483 L 845.885 581.483 C 851.314 581.483 856.243 582.912 860.672 585.77 C 865.101 588.627 867.315 592.77 867.315 598.199 C 867.315 603.343 865.672 607.271 862.387 609.986 C 859.1 612.701 854.743 614.058 849.313 614.058 C 845.027 614.058 840.885 612.63 836.884 609.772 C 832.884 606.914 830.026 603.057 828.311 598.199 L 813.31 603.771 C 815.597 611.486 819.668 617.629 825.526 622.202 C 831.384 626.773 839.313 629.059 849.313 629.059 Z M 611.864 686.493 L 903.319 686.493 L 903.319 463.616 L 611.864 463.616 L 611.864 686.493 Z M 611.864 686.493 L 611.864 463.616 L 611.864 686.493 Z" style=""/>
</svg>