<?xml version="1.0" encoding="UTF-8" standalone="no"?>
<svg
   height="48"
   width="48"
   version="1.1"
   viewBox="0 0 48 48"
   id="svg4"
   sodipodi:docname="Forced.svg"
   inkscape:version="1.1.1 (3bf5ae0d25, 2021-09-20)"
   xmlns:inkscape="http://www.inkscape.org/namespaces/inkscape"
   xmlns:sodipodi="http://sodipodi.sourceforge.net/DTD/sodipodi-0.dtd"
   xmlns="http://www.w3.org/2000/svg"
   xmlns:svg="http://www.w3.org/2000/svg">
  <defs
     id="defs8" />
  <sodipodi:namedview
     id="namedview6"
     pagecolor="#505050"
     bordercolor="#eeeeee"
     borderopacity="1"
     inkscape:pageshadow="0"
     inkscape:pageopacity="0"
     inkscape:pagecheckerboard="0"
     showgrid="false"
     inkscape:zoom="2.1145834"
     inkscape:cx="120.59113"
     inkscape:cy="65.497536"
     inkscape:window-width="2560"
     inkscape:window-height="1361"
     inkscape:window-x="1911"
     inkscape:window-y="-9"
     inkscape:window-maximized="1"
     inkscape:current-layer="text67951" />
  <path
     d="M 9,42 C 8.2,42 7.5,41.7 6.9,41.1 6.3,40.5 6,39.8 6,39 V 9 C 6,8.2 6.3,7.5 6.9,6.9 7.5,6.3 8.2,6 9,6 h 30 c 0.8,0 1.5,0.3 2.1,0.9 C 41.7,7.5 42,8.2 42,9 v 30 c 0,0.8 -0.3,1.5 -0.9,2.1 C 40.5,41.7 39.8,42 39,42 Z M 9,39 H 39 V 9 H 9 Z M 9,9 v 30 z"
     id="path2"
     sodipodi:nodetypes="ssssssssssssscccccccc" />
  <text
     xml:space="preserve"
     style="font-size:32px;line-height:1.25;font-family:sans-serif"
     x="10.522167"
     y="37.536945"
     id="text37335"><tspan
       id="tspan37333"
       x="10.522167"
       y="37.536945"
       sodipodi:role="line" /><tspan
       x="10.522167"
       y="77.536942"
       sodipodi:role="line"
       id="tspan59021" /></text>
  <text
     xml:space="preserve"
     style="font-size:32px;line-height:1.25;font-family:sans-serif"
     x="7.270936"
     y="38.482758"
     id="text65075"><tspan
       sodipodi:role="line"
       id="tspan65073" /></text>
  <g
     aria-label="I/O "
     id="text67951"
     style="font-size:29.3333px;line-height:1.25;font-family:'Tw Cen MT Condensed';-inkscape-font-specification:'Tw Cen MT Condensed, '">
    <path
       d="m 13.828126,16.397765 h 3.164063 v 14.636718 h -3.164063 z"
       style="font-weight:bold;font-size:24px;-inkscape-font-specification:'Tw Cen MT Condensed,  Bold'"
       id="path117411" />
    <path
       d="m 24.530231,15.50714 -3.9685,17.40344 -1.758332,-0.05911 4.027614,-17.344327 z"
       style="font-weight:bold;font-size:24px;-inkscape-font-specification:'Tw Cen MT Condensed,  Bold'"
       id="path117413"
       sodipodi:nodetypes="ccccc" />
    <path
       d="m 25.141974,23.817293 q 0,-3.082031 0.667968,-4.523437 0.667969,-1.441407 1.769532,-2.238282 1.113281,-0.796875 2.800781,-0.796875 1.394531,0 2.25,0.46875 0.855469,0.457032 1.582031,1.347657 0.738281,0.878906 1.078125,2.191406 0.339844,1.300781 0.339844,3.457031 0,4.417969 -1.476563,6.105469 -1.464843,1.675781 -3.796875,1.675781 -2.378906,0 -3.796875,-1.734375 -1.417968,-1.746094 -1.417968,-5.953125 z m 3.339843,-0.890625 v 0.9375 q 0,2.308594 0.152344,3.046875 0.152344,0.726563 0.644531,1.148438 0.503907,0.421875 1.195313,0.421875 0.5625,0 1.03125,-0.410157 0.46875,-0.410156 0.65625,-1.242187 0.1875,-0.84375 0.1875,-2.988281 0,-1.921875 -0.164063,-2.730469 -0.152343,-0.820313 -0.632812,-1.324219 -0.480469,-0.503906 -1.171875,-0.503906 -1.007813,0 -1.453125,0.878906 -0.445313,0.867188 -0.445313,2.765625 z"
       style="font-weight:bold;font-size:24px;-inkscape-font-specification:'Tw Cen MT Condensed,  Bold'"
       id="path117415" />
  </g>
</svg>
