<?xml version="1.0" encoding="utf-8"?>
<svg height="48" viewBox="0 96 960 960" width="48" xmlns="http://www.w3.org/2000/svg">
  <path d="M 663 811 L 663 457 L 549 570 L 507 528 L 693 342 L 879 528 L 836 570 L 723 457 L 723 811 L 663 811 Z" transform="matrix(0, 1, -1, 0, 1269.499987, -116.499993)"/>
  <path d="M 60.798 711.918 C 53.986 711.918 48.025 709.365 42.916 704.255 C 37.808 699.146 35.253 693.185 35.253 686.374 L 35.253 464.984 C 35.253 458.172 37.808 452.211 42.916 447.102 C 48.025 441.994 53.986 439.439 60.798 439.439 L 350.308 439.439 C 357.12 439.439 363.08 441.994 368.19 447.102 C 373.298 452.211 375.853 458.172 375.853 464.984 L 375.853 686.374 C 375.853 693.185 373.298 699.146 368.19 704.255 C 363.08 709.365 357.12 711.918 350.308 711.918 L 60.798 711.918 Z M 106.352 629.323 L 124.234 629.323 L 124.234 522.035 L 110.611 522.035 L 79.531 542.896 L 88.472 556.946 L 106.352 545.025 L 106.352 629.323 Z M 162.978 629.323 L 232.375 629.323 L 232.375 613.145 L 185.968 613.145 L 185.968 612.293 C 189.942 608.887 194.271 605.127 198.953 601.011 C 203.637 596.896 207.823 592.993 211.513 589.303 C 217.473 583.626 222.157 578.163 225.563 572.912 C 228.969 567.661 230.671 561.345 230.671 553.966 C 230.671 544.884 227.55 537.291 221.305 531.189 C 215.061 525.086 206.972 522.035 197.038 522.035 C 188.523 522.035 181.356 524.022 175.538 527.996 C 169.718 531.969 165.39 537.22 162.551 543.747 L 178.731 551.411 C 180.15 548.288 182.562 545.592 185.968 543.322 C 189.374 541.051 193.064 539.916 197.038 539.916 C 202.146 539.916 206.12 541.335 208.958 544.174 C 211.797 547.012 213.216 550.418 213.216 554.392 C 213.216 560.068 211.797 564.822 208.958 568.655 C 206.12 572.486 202.289 576.53 197.464 580.788 C 190.935 586.748 185.187 591.999 180.22 596.54 C 175.253 601.081 169.506 606.475 162.978 612.72 L 162.978 629.323 Z M 296.662 629.323 C 306.881 629.323 315.325 626.84 321.994 621.872 C 328.666 616.905 332 609.171 332 598.669 C 332 591.573 330.155 585.754 326.465 581.213 C 322.775 576.672 317.95 574.117 311.991 573.55 L 311.991 573.125 C 317.383 571.421 321.427 568.655 324.124 564.822 C 326.821 560.991 328.169 555.952 328.169 549.708 C 328.169 541.194 325.117 534.452 319.015 529.485 C 312.912 524.518 305.32 522.035 296.237 522.035 C 289.993 522.035 284.033 523.737 278.356 527.143 C 272.68 530.549 267.996 535.516 264.306 542.045 L 278.782 549.708 C 281.052 546.586 283.677 544.103 286.658 542.258 C 289.638 540.413 292.831 539.49 296.237 539.49 C 300.495 539.49 303.971 540.697 306.668 543.109 C 309.365 545.522 310.713 548.857 310.713 553.115 C 310.713 557.939 309.081 561.203 305.816 562.907 C 302.553 564.609 298.224 565.462 292.831 565.462 L 286.87 565.462 L 286.87 582.065 L 293.258 582.065 C 298.65 582.065 303.547 583.485 307.945 586.323 C 312.345 589.161 314.544 593.277 314.544 598.669 C 314.544 603.779 312.912 607.68 309.649 610.378 C 306.384 613.074 302.056 614.422 296.662 614.422 C 292.405 614.422 288.29 613.003 284.317 610.165 C 280.343 607.326 277.504 603.495 275.801 598.669 L 260.9 604.204 C 263.171 611.867 267.215 617.969 273.034 622.512 C 278.852 627.053 286.729 629.323 296.662 629.323 Z M 60.798 686.374 L 350.308 686.374 L 350.308 464.984 L 60.798 464.984 L 60.798 686.374 Z M 60.798 686.374 L 60.798 464.984 L 60.798 686.374 Z" style=""/>
</svg>