<?xml version="1.0" encoding="utf-8"?>
<svg height="48" viewBox="0 96 960 960" width="48" xmlns="http://www.w3.org/2000/svg">
  <path d="M 479.882 976 C 449.294 976 423.333 965.294 402 943.882 C 380.667 922.471 370 896.471 370 865.882 C 370 835.294 380.706 809.333 402.118 788 C 423.529 766.667 449.529 756 480.118 756 C 510.706 756 536.667 766.706 558 788.118 C 579.333 809.529 590 835.529 590 866.118 C 590 896.706 579.294 922.667 557.882 944 C 536.471 965.333 510.471 976 479.882 976 Z M 480 646 L 294 460 L 336 418 L 450 531 L 450 177 L 510 177 L 510 531 L 623 418 L 666 460 L 480 646 Z" transform="matrix(0, -1, 1, 0, -96.499963, 1056.499993)"/>
</svg>