<svg xmlns="http://www.w3.org/2000/svg" xmlns:xlink="http://www.w3.org/1999/xlink" version="1.1" x="0px" y="0px" viewBox="3 3 20 20" xml:space="preserve" width="22px" height="22px" ><polygon fill=" #FFFFFF" transform="translate(-3,-3)" points="11.895,18.398 8.061,22.23 5.796,19.967 5.796,26.283 12.112,26.283 9.848,24.018 13.682,20.186"/><polygon fill=" #FFFFFF" transform="translate(-3,-3)" points="19.691,6.072 21.955,8.337 18.121,12.172 19.908,13.959 23.742,10.123 26.007,12.389 26.007,6.072"/><polygon fill=" #FFFFFF" transform="translate(-3,-3)" points="11.895,13.958 13.682,12.172 9.848,8.337 12.112,6.072 5.796,6.072 5.796,12.389 8.061,10.123"/><polygon fill=" #FFFFFF" transform="translate(-3,-3)" points="19.908,18.396 18.121,20.186 21.955,24.018 19.691,26.283 26.007,26.283 26.007,19.967 23.741,22.23"/></svg>
