<?xml version="1.0" encoding="utf-8"?>
<!-- Generator: Adobe Illustrator 18.0.0, SVG Export Plug-In . SVG Version: 6.00 Build 0)  -->
<!DOCTYPE svg PUBLIC "-//W3C//DTD SVG 1.1//EN" "http://www.w3.org/Graphics/SVG/1.1/DTD/svg11.dtd" [
	<!ENTITY ns_extend "http://ns.adobe.com/Extensibility/1.0/">
	<!ENTITY ns_ai "http://ns.adobe.com/AdobeIllustrator/10.0/">
	<!ENTITY ns_graphs "http://ns.adobe.com/Graphs/1.0/">
	<!ENTITY ns_vars "http://ns.adobe.com/Variables/1.0/">
	<!ENTITY ns_imrep "http://ns.adobe.com/ImageReplacement/1.0/">
	<!ENTITY ns_sfw "http://ns.adobe.com/SaveForWeb/1.0/">
	<!ENTITY ns_custom "http://ns.adobe.com/GenericCustomNamespace/1.0/">
	<!ENTITY ns_adobe_xpath "http://ns.adobe.com/XPath/1.0/">
]>
<svg version="1.1" id="Layer_1" xmlns:x="&ns_extend;" xmlns:i="&ns_ai;" xmlns:graph="&ns_graphs;"
	 xmlns="http://www.w3.org/2000/svg" xmlns:xlink="http://www.w3.org/1999/xlink" x="0px" y="0px"
	 viewBox="-120.2 296.2 852.4 199.6" enable-background="new -120.2 296.2 852.4 199.6" xml:space="preserve">
<metadata>
	<sfw  xmlns="&ns_sfw;">
		<slices></slices>
		<sliceSourceBounds  bottomLeftOrigin="true" width="834.9" height="177.5" x="-111.8" y="305.5"></sliceSourceBounds>
	</sfw>
</metadata>
<g id="Layer_2" display="none">
</g>
<g id="specs__x2B__mocks">
	<g>
		<g>
			<path fill="#0096A9" d="M-111.8,395.2v19c0,38.8,31.5,70.3,70.3,70.3h69.9V395h-140.3V395.2z"/>
			<rect x="-111.8" y="342.7" fill="#0096A9" width="140" height="41.9"/>
			<rect x="-111.8" y="310.8" fill="#0096A9" width="140" height="21.4"/>
		</g>
		<g>
			<path fill="#717271" d="M114.6,368.6c0,0-7.4,7.4-19,7.4c-15.3,0-27.3-12.1-27.3-27.8c0-15.7,11.6-27.8,27.3-27.8
				c11.6,0,19,7.4,19,7.4l0.5,0.5l6.9-9.3l-0.5-0.5c-0.5-0.7-8.4-9.5-26.2-9.5c-22.2,0-38.8,16.2-38.8,38.8
				c0,22.2,16.2,38.4,38.8,38.4c17.3,0,25.5-9.3,26.1-9.3l0.5-0.5l-6.4-8.9L114.6,368.6z"/>
			<polygon fill="#717271" points="193.1,374.2 151.3,374.2 151.3,310.8 139.7,310.8 139.7,384.9 193.1,384.9 			"/>
			<polygon fill="#717271" points="265.4,374.2 221.4,374.2 221.4,353.4 259.3,353.4 259.3,343.3 221.4,343.3 221.4,321.3 
				265.4,321.3 265.4,310.8 209.8,310.8 209.8,384.9 265.4,384.9 			"/>
			<path fill="#717271" d="M342.5,384.9h13l-36.7-73.8v-0.5h-2.7l-36.7,74.3h13l6.1-12.1h38.8L342.5,384.9z M331.2,362.7h-28.3
				l14-30.6l0,0L331.2,362.7L331.2,362.7z"/>
			<polygon fill="#717271" points="436.9,310.8 425.3,310.8 425.3,361.2 374.9,310.8 370.9,310.8 370.9,384.9 382.8,384.9 
				382.8,333.9 433.3,384.9 436.9,384.9 			"/>
			<path fill="#717271" d="M114.6,468c0,0-7.4,7.4-19,7.4c-15.3,0-27.3-12.1-27.3-27.8s11.6-27.8,27.3-27.8c11.6,0,19,7.4,19,7.4
				l0.5,0.5l6.4-8.9l-0.5-0.5c-0.5-0.5-8.4-9.3-26.1-9.3c-22.2,0-38.8,16.2-38.8,38.8c0,22.2,16.2,38.4,38.8,38.4
				c17.3,0,25.5-9.3,26.1-9.3l0.5-0.5l-6.4-8.9h-0.5V468z"/>
			<polygon fill="#717271" points="191.6,442.9 151.3,442.9 151.3,410.4 139.7,410.4 139.7,484.7 151.3,484.7 151.3,453.5 
				191.6,453.5 191.6,484.7 203.2,484.7 203.2,410.4 191.6,410.4 			"/>
			<polygon fill="#717271" points="228.3,484.7 283.9,484.7 283.9,473.9 239.8,473.9 239.8,453 278.2,453 278.2,442.9 239.8,442.9 
				239.8,421 283.9,421 283.9,410.4 228.3,410.4 			"/>
			<polygon fill="#717271" points="340.5,445.1 307.5,410.4 303.8,410.4 303.8,484.7 314.8,484.7 314.8,435 338.8,460.1 
				341.9,460.1 365.6,435 365.6,484.7 376.6,484.7 376.6,410.4 372.9,410.4 			"/>
			<rect x="402.2" y="410.4" fill="#717271" width="11.6" height="74.3"/>
			<path fill="#717271" d="M465.2,441c-14.2-3.7-18.5-6.4-18.5-11.6c0-6.1,6.1-9.8,15.7-9.8c13,0,19.9,5.7,20.5,5.7l0.5,0.5l6.4-9.3
				l-0.5-0.5c-0.5-0.5-8.4-7.4-26.3-7.4c-17.7,0-27.8,7.9-27.8,20.9c0,12.5,9.3,17.7,26.1,22.2c15.7,4.7,18.5,7.4,18.5,13
				c0,6.9-5.7,10.6-16.7,10.6c-13.6,0-21.4-6.9-21.4-6.9l-0.5-0.5l-6.4,8.9l0.5,0.5c0.5,0.5,8.9,9.3,27.8,9.3
				c26.1,0,28.8-15.3,28.8-21.9C491.3,452.8,483.7,446.1,465.2,441z"/>
			<polygon fill="#717271" points="505.1,421 530.2,421 530.2,484.7 541.2,484.7 541.2,421 566.9,421 566.9,410.4 505.1,410.4 			
				"/>
			<path fill="#717271" d="M645.1,436c0-16.2-11-25.1-30.3-25.1h-31v74.3h11.6v-23.6h20.9l19,23.6h12.1v-2.7l-18.5-22.6
				C639.2,454.9,645.1,447.1,645.1,436z M633.1,436c0,12.5-10.6,14.2-17.7,14.2h-20.5v-29.8h19.4C626.6,421,633.1,426.2,633.1,436z"
				/>
			<polygon fill="#717271" points="709.5,410.4 690.6,441.5 688.9,445.6 687.4,441.5 667.9,410.4 654.5,410.4 682.7,456.4 
				682.7,484.7 694.3,484.7 694.3,456.4 723.1,410.4 			"/>
		</g>
	</g>
</g>
</svg>
